<?xml version="1.0" standalone="no"?>
<!DOCTYPE svg PUBLIC "-//W3C//DTD SVG 20010904//EN"
 "http://www.w3.org/TR/2001/REC-SVG-20010904/DTD/svg10.dtd">
<svg version="1.0" xmlns="http://www.w3.org/2000/svg"
 width="362.000000pt" height="360.000000pt" viewBox="0 0 362.000000 360.000000"
 preserveAspectRatio="xMidYMid meet">

<g transform="translate(0.000000,360.000000) scale(0.100000,-0.100000)"
fill="#fd1056" stroke="none">
<path d="M1600 3285 c-240 -36 -435 -110 -634 -242 -121 -80 -305 -260 -388
-378 -317 -453 -361 -1033 -117 -1530 l42 -85 -105 -383 c-58 -210 -104 -384
-102 -385 1 -2 71 15 156 37 84 23 247 66 363 96 116 30 223 58 240 63 23 6
43 1 97 -25 205 -100 410 -146 648 -146 413 0 763 145 1056 437 220 221 349
458 416 768 29 137 32 427 5 558 -98 473 -374 845 -787 1063 -259 136 -603
195 -890 152z m-215 -801 c8 -4 23 -21 32 -38 37 -70 133 -313 133 -334 0 -32
-14 -57 -71 -125 -27 -32 -49 -68 -49 -79 0 -60 195 -284 319 -368 83 -56 227
-123 249 -116 9 3 52 49 95 101 56 68 85 95 101 95 12 0 99 -38 194 -85 l172
-84 0 -49 c0 -87 -26 -151 -83 -207 -93 -91 -211 -127 -341 -106 -95 16 -260
72 -372 126 -208 101 -408 289 -583 549 -172 254 -186 469 -43 645 53 65 85
81 164 81 36 0 74 -3 83 -6z"/>
</g>
</svg>
